<svg xmlns="http://www.w3.org/2000/svg" viewBox="0 0 64 64">
  <defs>
    <linearGradient id="bg" x1="0%" y1="0%" x2="100%" y2="100%">
      <stop offset="0%" stop-color="#0a1a33" />
      <stop offset="100%" stop-color="#123457" />
    </linearGradient>
    <linearGradient id="ring" x1="0%" y1="0%" x2="100%" y2="100%">
      <stop offset="0%" stop-color="#ffbe55" />
      <stop offset="100%" stop-color="#ff7a18" />
    </linearGradient>
  </defs>
  <rect width="64" height="64" rx="14" fill="url(#bg)" />
  <rect x="3" y="3" width="58" height="58" rx="11" fill="none" stroke="url(#ring)" stroke-width="2.5" />
  <path
    d="M22.5 45h19c1.1 0 2 .9 2 2v2.5h-23V47c0-1.1.9-2 2-2zm2.8-3.8 1.8-7.4-3.7-5.9c-1.7-2.7-1.6-6.2.3-8.8 2.9-4 8.6-4.7 12.4-1.5l2.7 2.2-3.6 2.3 2.8 4.5-4.3 2.7 2 3.2 3.6-2.2 2.8 4.5-2.5 1.6-1.7 7.2H25.3z"
    fill="#eef3ff"
  />
  <circle cx="33.2" cy="20.2" r="1.7" fill="#0d1e36" />
</svg>
